<svg width="266" height="266" viewBox="0 0 266 266" fill="none" xmlns="http://www.w3.org/2000/svg">
<g filter="url(#filter0_d_306_77)">
<path fill-rule="evenodd" clip-rule="evenodd" d="M102.405 56.5804C93.0015 60.5576 84.6741 66.1724 77.4238 73.4238C70.1724 80.6741 64.5576 89.0015 60.5803 98.4049C56.462 108.143 54.4028 118.341 54.4028 129C54.4028 139.659 56.462 149.857 60.5803 159.595C64.5576 168.998 70.1724 177.326 77.4238 184.576C84.6744 191.827 93.0015 197.442 102.405 201.419C112.143 205.538 122.34 207.597 133 207.597C143.658 207.597 153.857 205.538 163.594 201.419C172.998 197.441 181.325 191.827 188.576 184.576C195.827 177.325 201.441 168.998 205.419 159.595C209.538 149.857 211.597 139.659 211.597 129C211.597 118.341 209.538 108.143 205.419 98.4049C201.442 89.0015 195.827 80.6744 188.576 73.4238C181.325 66.1724 172.998 60.5576 163.594 56.5804C153.857 52.4617 143.658 50.4028 133 50.4028C122.34 50.4028 112.143 52.4617 102.405 56.5804ZM104.761 195.851C96.0806 192.18 88.3941 186.997 81.6989 180.301C75.0034 173.606 69.8201 165.919 66.1491 157.239C62.3487 148.255 60.4485 138.842 60.4485 129C60.4485 119.158 62.3487 109.745 66.1491 100.761C69.8201 92.0809 75.0034 84.3937 81.6989 77.6989C88.3937 71.0034 96.0809 65.8202 104.761 62.1491C113.745 58.3487 123.158 56.4485 133 56.4485C142.842 56.4485 152.255 58.3487 161.239 62.1491C169.919 65.8202 177.606 71.0034 184.301 77.6989C190.997 84.3941 196.18 92.0816 199.851 100.761C203.651 109.745 205.551 119.158 205.551 129C205.551 138.842 203.651 148.255 199.851 157.239C196.18 165.919 190.997 173.606 184.301 180.301C177.606 186.997 169.919 192.18 161.239 195.851C152.255 199.651 142.842 201.551 133 201.551C123.158 201.551 113.745 199.651 104.761 195.851V195.851Z" fill="white"/>
<path fill-rule="evenodd" clip-rule="evenodd" d="M141.965 64.6505C139.035 64.2465 136.041 64.0375 133 64.0375C115.714 64.0375 100.004 70.7894 88.3651 81.7994L108.994 117.528L141.965 64.6505Z" fill="white"/>
<path fill-rule="evenodd" clip-rule="evenodd" d="M154.307 67.6128L132.458 102.425H192.296C185.009 86.1914 171.251 73.4934 154.307 67.6128V67.6128Z" fill="white"/>
<path fill-rule="evenodd" clip-rule="evenodd" d="M80.1567 91.205C72.528 101.853 68.0364 114.902 68.0364 129C68.0364 134.079 68.6194 139.022 69.7222 143.764H110.502L80.1567 91.205Z" fill="white"/>
<path fill-rule="evenodd" clip-rule="evenodd" d="M186.067 166.48C193.559 155.89 197.962 142.959 197.962 129C197.962 123.922 197.38 118.979 196.277 114.236H156.687L186.067 166.48Z" fill="white"/>
<path fill-rule="evenodd" clip-rule="evenodd" d="M127.47 193.731C129.293 193.885 131.137 193.963 133 193.963C150.391 193.963 166.185 187.13 177.846 176.001L158.02 140.816L127.47 193.731Z" fill="white"/>
<path fill-rule="evenodd" clip-rule="evenodd" d="M115.133 191.476C96.6164 186.19 81.4781 172.895 73.7037 155.576H135.859L115.133 191.476Z" fill="white"/>
<path d="M27.0816 103.21L22.5909 102.424L20.1476 116.381L41.3877 120.099L42.28 115.002L34.0874 113.568L35.3568 106.316L31.1392 105.577L29.8697 112.829L25.5307 112.07L27.0816 103.21Z" fill="white"/>
<path d="M30.94 79.6635C28.2999 85.1276 29.9817 90.2851 36.5275 93.4479C43.0733 96.6106 48.1592 94.7231 50.7993 89.259C53.4394 83.795 51.7441 78.6652 45.1984 75.5024C38.6526 72.3397 33.5801 74.1994 30.94 79.6635ZM46.6943 87.2756C45.3005 90.1602 42.687 90.4711 38.8594 88.6217C35.0041 86.7589 33.6512 84.5315 35.045 81.6469C36.4388 78.7624 39.0245 78.438 42.8799 80.3008C46.7075 82.1502 48.088 84.391 46.6943 87.2756Z" fill="white"/>
<path d="M69.5346 57.5099L68.3905 56.4333C66.82 54.9557 65.2379 54.5244 62.7811 55.4273C63.1001 53.7396 63.2173 51.8619 61.2879 50.0466C58.4611 47.3868 54.9353 46.8186 50.8613 51.1485L44.2542 58.1706L59.9585 72.9469L63.5048 69.1779L57.9185 63.9217L61.1904 60.4443C62.4147 59.1431 63.6697 59.5626 64.7241 60.5547L65.7561 61.5257C67.4387 63.1089 67.7264 63.2526 68.8031 63.5467L72.5817 59.5309C71.5049 59.2368 71.2172 59.093 69.5346 57.5099H69.5346ZM57.7171 58.0222L54.8674 61.0509L51.1432 57.5468L54.1196 54.3835C55.4284 52.9925 56.3203 52.9436 57.6216 54.1679C59.1247 55.5822 59.4059 56.2274 57.7171 58.0222V58.0222Z" fill="white"/>
<path d="M85.4159 45.7374C82.6695 47.326 80.359 46.1002 78.2306 42.4204C76.0867 38.714 76.1915 36.1267 78.938 34.5381C80.8312 33.443 81.9355 33.4448 83.7576 34.8108L88.0773 32.3121C85.1295 28.3234 80.4151 28.4169 76.5753 30.6379C71.429 33.6147 69.9509 38.8112 73.5909 45.1041C77.2309 51.3971 82.4723 52.7068 87.6186 49.7301C91.4851 47.4936 93.9435 43.4382 91.8982 38.8563L87.5784 41.3549C87.9115 43.6533 87.3358 44.6269 85.4159 45.7374V45.7374Z" fill="white"/>
<path d="M107.646 36.0423L106.629 31.9464L113.775 30.1725L112.743 26.0168L105.598 27.7908L104.647 23.964L113.587 21.7447L112.488 17.3199L98.5262 20.7862L103.722 41.714L117.983 38.1734L116.884 33.7487L107.646 36.0423Z" fill="white"/>
<path d="M136.553 15.9064L127.81 15.579L127.003 37.127L135.746 37.4544C142.241 37.6977 146.046 34.0486 146.308 27.0609C146.569 20.0732 143.048 16.1497 136.553 15.9064V15.9064ZM135.485 32.8824L132.346 32.7648L132.811 20.3286L135.951 20.4462C140.045 20.5995 141.052 22.5176 140.89 26.858C140.727 31.1984 139.58 33.0358 135.485 32.8824V32.8824Z" fill="white"/>
<path d="M191.344 36.9139L193.531 32.9135L181.097 26.1173L170.755 45.0383L175.296 47.5204L179.285 40.2223L185.745 43.7534L187.799 39.9962L181.339 36.4651L183.451 32.5998L191.344 36.9139Z" fill="white"/>
<path d="M208.99 63.7452L218.356 54.119L214.669 50.5316L205.754 59.6942C203.477 62.0345 201.424 61.6705 199.967 60.2527C198.51 58.8349 198.068 56.7715 200.345 54.4312L209.26 45.2686L205.55 41.6598L196.185 51.286C192.64 54.9289 193.299 60.1262 196.788 63.5203C200.232 66.8714 205.446 67.3881 208.99 63.7452V63.7452Z" fill="white"/>
<path d="M236.578 82.441L234.108 77.9287L223.165 83.9198L230.409 71.1737L228.072 66.9045L209.158 77.2595L211.643 81.7988L222.614 75.793L215.223 88.3377L217.664 92.796L236.578 82.441Z" fill="white"/>
<path d="M243.834 106.194L242.126 97.6138L220.978 101.822L222.685 110.402C223.954 116.777 228.385 119.633 235.243 118.268C242.101 116.903 245.102 112.569 243.834 106.194ZM227.072 109.089L226.459 106.008L238.665 103.579L239.278 106.661C240.078 110.679 238.445 112.103 234.185 112.951C229.925 113.798 227.872 113.108 227.072 109.089V109.089Z" fill="white"/>
<path d="M74.2233 208.82L73.5147 208.264L69.6559 213.19L70.3521 205.787L69.6176 205.211L64.8787 211.26L65.5786 211.808L69.4307 206.892L68.7326 214.279L69.4843 214.868L74.2233 208.82Z" fill="white"/>
<path d="M81.8007 213.718C80.1103 212.694 78.2941 213.045 76.9015 215.346C75.5089 217.647 76.0405 219.418 77.7309 220.441C79.4212 221.465 81.2374 221.114 82.63 218.813C84.0226 216.512 83.4911 214.741 81.8007 213.718ZM78.1515 219.747C76.8931 218.985 76.5649 217.683 77.6904 215.823C78.8158 213.964 80.1217 213.651 81.3801 214.412C82.6385 215.174 82.9666 216.476 81.8412 218.336C80.7157 220.195 79.4099 220.508 78.1515 219.747Z" fill="white"/>
<path d="M91.7126 222.912C92.4921 223 93.1068 222.628 93.4151 221.948C93.8775 220.928 93.4796 219.892 92.06 219.248L89.6107 218.137L86.4371 225.136L88.9265 226.264C90.646 227.044 91.7913 226.672 92.3897 225.352C92.7569 224.542 92.5499 223.617 91.7126 222.912ZM90.0986 219.215L91.7681 219.972C92.7079 220.398 92.8583 220.996 92.5772 221.616C92.2598 222.316 91.6605 222.575 90.8607 222.212L89.1012 221.414L90.0986 219.215ZM89.2483 225.555L87.5688 224.793L88.811 222.054L90.5006 222.82C91.6902 223.359 91.909 224.206 91.5599 224.976C91.1746 225.826 90.478 226.112 89.2483 225.555V225.555Z" fill="white"/>
<path d="M102.949 223.326C101.066 222.727 99.382 223.492 98.5657 226.055C97.7495 228.617 98.6804 230.216 100.563 230.815C102.446 231.415 104.13 230.649 104.946 228.087C105.762 225.524 104.831 223.926 102.949 223.326ZM100.81 230.041C99.4081 229.595 98.7846 228.405 99.4443 226.334C100.104 224.264 101.3 223.654 102.702 224.1C104.104 224.547 104.727 225.736 104.067 227.807C103.408 229.878 102.211 230.488 100.81 230.041Z" fill="white"/>
<path d="M113.937 226.242L111.564 225.794L110.138 233.344L112.511 233.792C114.863 234.236 116.353 233.088 116.805 230.693C117.257 228.299 116.289 226.686 113.937 226.242V226.242ZM112.587 232.98L111.163 232.711L112.287 226.757L113.711 227.026C115.598 227.382 116.267 228.514 115.888 230.52C115.51 232.526 114.474 233.336 112.587 232.98V232.98Z" fill="white"/>
<path d="M126.338 232.514L129.469 228.062L128.45 227.992L125.944 231.673L123.96 227.687L122.941 227.618L125.44 232.453L125.234 235.475L126.133 235.537L126.338 232.514Z" fill="white"/>
<path d="M147.239 230.587C147.949 230.252 148.277 229.613 148.182 228.872C148.04 227.762 147.157 227.089 145.611 227.287L142.943 227.629L143.919 235.251L146.63 234.903C148.503 234.664 149.282 233.745 149.098 232.308C148.985 231.426 148.322 230.747 147.239 230.587V230.587ZM143.924 228.289L145.742 228.056C146.766 227.925 147.208 228.355 147.295 229.03C147.392 229.792 147.018 230.327 146.147 230.439L144.231 230.684L143.924 228.289ZM146.531 234.13L144.702 234.365L144.32 231.381L146.16 231.145C147.456 230.98 148.086 231.585 148.194 232.423C148.312 233.349 147.87 233.959 146.531 234.13V234.13Z" fill="white"/>
<path d="M160.821 229.132L159.672 224.486L158.809 224.699L159.94 229.271C160.301 230.731 159.764 231.621 158.506 231.932C157.249 232.243 156.369 231.703 156.008 230.244L154.877 225.672L154.014 225.886L155.163 230.532C155.617 232.365 156.986 233.145 158.701 232.721C160.428 232.294 161.275 230.965 160.821 229.132V229.132Z" fill="white"/>
<path d="M170.018 220.97L167.961 221.735L165.07 222.811L165.349 223.562L167.397 222.8L169.797 229.251L170.641 228.937L168.24 222.486L170.298 221.721L170.018 220.97Z" fill="white"/>
<path d="M189.684 216.09L187.184 212.009L186.426 212.474L188.886 216.489C189.671 217.772 189.428 218.783 188.324 219.46C187.219 220.136 186.217 219.888 185.432 218.605L182.972 214.589L182.214 215.054L184.713 219.135C185.7 220.745 187.241 221.076 188.748 220.152C190.264 219.224 190.67 217.701 189.684 216.09V216.09Z" fill="white"/>
<path d="M196.679 209.345L195.74 209.802C194.9 210.224 194.33 210.085 193.937 209.584C193.531 209.066 193.517 208.337 194.502 207.565C195.452 206.82 196.095 206.929 196.615 207.414L197.332 206.852C196.459 205.988 195.316 205.936 194.021 206.952C192.665 208.015 192.487 209.229 193.205 210.145C193.909 211.043 194.891 211.068 196.071 210.491L197.086 209.988C197.851 209.612 198.582 209.512 199.138 210.221C199.653 210.877 199.513 211.642 198.442 212.482C197.371 213.322 196.609 213.097 195.997 212.531L195.271 213.1C196.21 214.065 197.481 214.227 198.923 213.095C200.314 212.005 200.703 210.723 199.863 209.652C199.05 208.615 197.992 208.706 196.679 209.345V209.345Z" fill="white"/>
<path fill-rule="evenodd" clip-rule="evenodd" d="M41.7832 37.7832C29.881 49.6854 20.6659 63.3532 14.1382 78.7868C7.3794 94.7665 4 111.504 4 129C4 146.496 7.37944 163.233 14.1383 179.212C20.6659 194.646 29.8809 208.314 41.7832 220.216C53.6864 232.119 67.3543 241.335 82.7868 247.862C98.767 254.621 115.505 258 133 258C150.495 258 167.233 254.621 183.212 247.862C198.648 241.333 212.316 232.118 224.216 220.216C236.119 208.312 245.335 194.644 251.862 179.212C258.621 163.232 262 146.495 262 129C262 111.504 258.621 94.7664 251.862 78.7868C245.334 63.3527 236.119 49.6849 224.216 37.7832C212.314 25.8808 198.646 16.6658 183.212 10.1382C167.233 3.37942 150.495 7.62939e-06 133 7.62939e-06C115.504 7.62939e-06 98.7663 3.37942 82.7868 10.1382C67.3534 16.666 53.6855 25.881 41.7832 37.7832V37.7832ZM6.5876 129C6.5876 111.854 9.89889 95.4521 16.5215 79.7948C22.918 64.6712 31.9485 51.2773 43.613 39.613C55.2773 27.9486 68.6712 18.9181 83.7948 12.5215C99.4523 5.89889 115.854 2.5876 133 2.5876C150.146 2.5876 166.547 5.89889 182.204 12.5215C197.328 18.9181 210.723 27.9486 222.387 39.613C234.051 51.2764 243.081 64.6703 249.479 79.7948C256.101 95.4517 259.412 111.853 259.412 129C259.412 146.145 256.101 162.547 249.479 178.204C243.082 193.327 234.052 206.721 222.387 218.387C210.723 230.052 197.329 239.082 182.204 245.479C166.547 252.101 150.146 255.412 133 255.412C115.855 255.412 99.4533 252.101 83.7948 245.479C68.6722 239.082 55.2782 230.052 43.613 218.387C31.9487 206.723 22.9182 193.329 16.5214 178.204C9.89887 162.547 6.5876 146.146 6.5876 129V129Z" fill="white"/>
</g>
<defs>
<filter id="filter0_d_306_77" x="0" y="7.62939e-06" width="266" height="266" filterUnits="userSpaceOnUse" color-interpolation-filters="sRGB">
<feFlood flood-opacity="0" result="BackgroundImageFix"/>
<feColorMatrix in="SourceAlpha" type="matrix" values="0 0 0 0 0 0 0 0 0 0 0 0 0 0 0 0 0 0 127 0" result="hardAlpha"/>
<feOffset dy="4"/>
<feGaussianBlur stdDeviation="2"/>
<feComposite in2="hardAlpha" operator="out"/>
<feColorMatrix type="matrix" values="0 0 0 0 0 0 0 0 0 0 0 0 0 0 0 0 0 0 0.25 0"/>
<feBlend mode="normal" in2="BackgroundImageFix" result="effect1_dropShadow_306_77"/>
<feBlend mode="normal" in="SourceGraphic" in2="effect1_dropShadow_306_77" result="shape"/>
</filter>
</defs>
</svg>
